<?xml version="1.0" encoding="UTF-8" standalone="no"?>
<svg xmlns="http://www.w3.org/2000/svg" viewBox="0 0 400 400">
   <defs/>
   <g fill-rule="evenodd">
      <path fill="#7196ba" d="M14.2 9.48c-2.16.53-3.4 1.47-4.28 3.26L9 14.6V200c0 152.31.1 185.67.53 186.89.71 2.01 2.44 3.36 4.97 3.89 4.52.93 371.42.36 373.29-.58 2.18-1.1 2.97-2.68 3.43-6.87.68-6.14.31-368-.38-369.73a6.14 6.14 0 00-3.04-3.54c-1.16-.64-371-1.2-373.6-.58m372.94 1.85a5.54 5.54 0 012.2 2.6l.86 1.87v368.8l-.85 1.83a4.81 4.81 0 01-2.4 2.6c-2.5 1.24-371.07 1.2-373.55-.03a5.23 5.23 0 01-2.4-2.4c-.95-1.89-1.5-366.38-.57-370.91.52-2.55 1.63-3.93 3.77-4.69 2.8-1 371.1-.67 372.94.33M108.2 76.82c-7.58.43-16.8 1.82-21.28 3.2-2.16.67-6 1.74-8.54 2.38a74.6 74.6 0 00-8.4 2.73C67.9 86 65.21 87.01 64 87.4a21.64 21.64 0 00-10.6 7.3c-3.34 4.06-8.98 10.03-25.5 27-2.28 2.33-3.05 3.8-2.48 4.73.3.5.28.5 13.98-.46 10.17-.7 33.17.53 42 2.26 16.1 3.16 39.02 10.93 46.83 15.86.9.56 3.14 1.79 4.99 2.72 4.52 2.27 8.12 5.84 10.07 9.99 4.5 9.56 5.19 11.38 7.07 18.48 3.49 13.2 3.86 29.1 1.04 44.72-.53 2.97-1.35 8.01-1.82 11.2-.46 3.19-1.62 8.86-2.58 12.6s-2.22 9.03-2.8 11.75a79.6 79.6 0 01-1.66 6.6c-.32.9-1.57 5.34-2.78 9.85-1.2 4.51-2.54 9.28-2.97 10.6a147 147 0 00-2 7.4c-.69 2.75-1.93 7.17-2.77 9.81a98.92 98.92 0 00-2.2 8.14 69.98 69.98 0 01-2.02 7.19c-3.43 9.98-1.1 11.11 10.7 5.2a74.5 74.5 0 015.6-2.5c1.37-.52 4.02-1.69 5.88-2.6 6.22-3.03 7.87-2.5 13.6 4.3 4.38 5.22 3.51 4.9 12.43 4.76 7.56-.1 9.19.26 9.19 2.1 0 2.62-8.24 3.12-14.65.88-5.06-1.78-8.65-1.06-11.47 2.3-7.5 8.91 21.57 12.6 37.97 4.8 9.43-4.48 17.38-16.96 14.13-22.2-1.54-2.5-3.68-3.15-11.18-3.4-7.23-.23-8.22-.5-10.15-2.8-3.1-3.69 1.49-4.98 8.54-2.4 5.33 1.94 8.14 1.47 10.5-1.75 4.41-6.02 3.16-9.4-3.5-9.42-8.9-.03-14.49-2.37-13.65-5.7.69-2.76 45.15-47.41 62.63-62.91a548.2 548.2 0 007.07-6.44c8.6-7.97 14.85-13.6 17.73-15.96 1.6-1.32 3.95-3.3 5.2-4.4 2.63-2.3 4.3-3.71 12.83-10.83 5.95-4.97 8.82-7.28 13.37-10.77 8.76-6.7 14.03-10.5 20.57-14.83a29.86 29.86 0 009.15-9.17c1-1.54 2.48-3.79 3.29-5 2.38-3.56 6.73-11.66 7.82-14.57.56-1.49 1.4-3.45 1.87-4.37 3.09-6.02 6.7-18.49 8.53-29.52 2-11.92 1.56-13.26-4.87-15.1-3.38-.97-5.87-1.79-10.46-3.44-12.86-4.61-14.86-4.05-24.86 6.95-19.39 21.32-24.16 26.64-33.36 37.21-14.76 16.95-14.75 16.84-1.36 15.2 9.48-1.15 12.17 3.67 8.21 14.76-.8 2.27-1.94 5.87-2.51 8-.57 2.13-2.14 7.12-3.48 11.08l-2.44 7.2-2.49 2.48a34.77 34.77 0 01-4.84 3.95 351.05 351.05 0 00-12.94 8.59c-.77.58-3.29 2.37-5.6 3.99a759.89 759.89 0 00-22.04 16.5A938.29 938.29 0 00204.74 244c-18.49 16.7-19.62 17.6-21.95 17.6-5.15 0-5.65-5.59-1.32-14.77.78-1.67 2.28-5.19 3.34-7.83a682 682 0 014.2-10.2c1.25-2.97 2.9-6.93 3.65-8.8.76-1.87 2.43-5.92 3.72-9a138.8 138.8 0 002.83-7.2c.28-.88 1.03-2.66 1.68-3.95.64-1.3 1.95-4.35 2.9-6.8 2.51-6.43 5.29-13.26 6.62-16.25.64-1.43 1.8-4.36 2.57-6.5a67.03 67.03 0 012.18-5.42c.42-.83 1.4-3.3 2.17-5.5.76-2.19 1.96-5.24 2.66-6.78 5.06-11.14 7.81-22.68 6.08-25.49-2.73-4.41-27.84-25.67-36.07-30.54-1.21-.72-3.43-2.11-4.93-3.1-4.25-2.8-17.75-9.34-22.13-10.7-2.16-.69-5.83-1.84-8.14-2.56-10.1-3.17-27.9-4.46-46.6-3.4M317.13 290a72.7 72.7 0 00-5.6 1.42c-3.6 1.04-3.92 1.07-9.33.74-14.25-.87-12.91-2.27-21.44 22.45-3.6 10.41-4.08 14.23-2.12 16.87 4.47 6.03 16.24 7.1 21.7 1.97 4.74-4.44 5.4-6.8 2.97-10.73-4.1-6.65.57-13.5 9.23-13.5 5.31-.01 7.3-1.86 12.22-11.4 3.32-6.44.56-9.27-7.63-7.82m6.12 1.85c2.02 1.02 1.43 3.69-2.05 9.22-3.94 6.29-4.9 6.94-10.06 6.94-8.77 0-13.82 8.4-9.37 15.6 2 3.25.84 6.51-3.46 9.73-3.78 2.81-12.7 2.46-16.8-.66-4.16-3.17-3.9-6.56 1.76-22.27l2.96-8.35c3.27-9.25 3.68-9.44 17.82-8.2 2.76.23 3.46.13 7.2-1.05 6.26-1.97 9.47-2.23 12-.96m-131.63.37c2.48.56 6.73 1.16 9.8 1.36 7.49.5 9.16 1.75 7.36 5.48-1.78 3.67-4.65 4.46-10 2.75-7.5-2.4-13.3-1.32-12.62 2.35.83 4.4 5.34 6.23 15.24 6.2 2.42 0 4.94.2 5.6.45 8.32 3.17-.84 18.94-13.7 23.6-15.96 5.77-39.24 2.81-33.19-4.22 1.84-2.13 4.55-2.31 11.49-.74 8.14 1.84 16 .26 16-3.23 0-2.43-2.72-3.3-11-3.51-7.43-.2-8.51-.56-12-4.04-7-7.02-2.26-16.66 11.93-24.26 6.64-3.55 8.2-3.78 15.1-2.2m51.57-.17c-5.84 1.12-16.56 8.38-19.22 13.01-4.38 7.64-4.25 10.41.8 16.73l2.17 2.73 6.65-.29c7.99-.34 11.72.44 11.1 2.31-.94 2.8-9.3 3-15.81.4-6.8-2.73-14.92 3.94-10.18 8.36 2.55 2.39 6.34 3.12 16.07 3.12 18.4 0 28.77-5.29 35.08-17.87 3.93-7.86.51-11.73-10.38-11.73-7.46 0-11.08-1.49-11.08-4.55 0-2.53 3.2-2.74 9.47-.63 5.4 1.83 6.86 1.58 9.99-1.69 4.22-4.41 3.9-8.7-.71-9.29-6.05-.78-21.08-1.16-23.95-.6m16.64 1.53c9.65.55 11.54 2.82 6.33 7.62-2.15 1.98-3.37 2.06-8.2.57-8.78-2.72-14.6-.75-11.87 4.03 1.92 3.35 4.62 4.3 12.52 4.44 8.99.15 11 1.15 10.97 5.44-.02 4.21-7.05 13.98-11.84 16.45-13.83 7.14-38.95 7.2-38.95.1 0-3 3.6-4.58 8.2-3.58 13.54 2.93 20.88 1.71 19.63-3.26-.47-1.86-2.2-2.32-9.83-2.59-5.84-.2-7.3-.38-8.8-1.06-10.94-4.95-6.25-18.21 9.17-25.92 6.2-3.1 6.6-3.14 22.67-2.24"/>
      <path fill="#20b44d" d="M0 200v200h400V0H0v200M387.8 10.06a6.14 6.14 0 013.04 3.54c.7 1.73 1.06 363.58.38 369.73-.46 4.19-1.25 5.77-3.43 6.87-1.88.94-368.77 1.5-373.3.58-2.52-.53-4.25-1.88-4.96-3.9C9.09 385.68 9 352.32 9 200V14.6l.92-1.86c.88-1.79 2.12-2.73 4.28-3.26 2.6-.63 372.44-.06 373.6.58m-70.4 281.16c-1.1.15-3.87.86-6.15 1.58-3.74 1.18-4.44 1.28-7.2 1.04-14.14-1.23-14.55-1.04-17.82 8.21l-2.96 8.35c-5.65 15.7-5.92 19.1-1.76 22.27 4.1 3.12 13.02 3.47 16.8.66 4.3-3.22 5.46-6.48 3.46-9.73-4.45-7.2.6-15.6 9.37-15.6 5.17 0 6.12-.65 10.06-6.94 5.03-8.01 3.91-10.9-3.8-9.84m-135.27.55c-4.52 1.42-13.25 6.89-16.18 10.15-9.2 10.22-3.98 20.4 10.65 20.78 8.28.2 11 1.08 11 3.51 0 3.49-7.86 5.07-16 3.23-6.94-1.57-9.65-1.4-11.49.74-6.05 7.03 17.23 9.99 33.19 4.21 12.86-4.65 22.02-20.42 13.7-23.6-.66-.24-3.18-.44-5.6-.44-9.9.03-14.41-1.8-15.24-6.2-.68-3.67 5.13-4.75 12.62-2.35 5.35 1.71 8.22.92 10-2.75 1.8-3.73.13-4.98-7.36-5.48-3.07-.2-7.32-.8-9.8-1.36-4.83-1.12-7-1.21-9.49-.44m61.24 1.62c-14.42 3.16-25.9 18.23-19.27 25.3 3.23 3.43 4.41 3.81 12.7 4.1 7.63.27 9.36.73 9.83 2.59 1.25 4.97-6.09 6.19-19.63 3.26-4.6-1-8.2.57-8.2 3.58 0 7.1 25.12 7.04 38.95-.1 4.79-2.47 11.82-12.24 11.84-16.45.02-4.3-1.98-5.29-10.97-5.44-7.9-.13-10.6-1.1-12.52-4.44-2.73-4.78 3.1-6.75 11.87-4.03 4.83 1.5 6.05 1.4 8.2-.57 5.2-4.8 3.32-7.07-6.33-7.62-12.54-.7-14.01-.72-16.47-.18"/>
      <path fill="#fbfbfb" d="M17.24 14.92c-.75.27-1.74.99-2.2 1.6l-.84 1.14v51.87c0 55.25 0 55.32 1.86 55.8 1.03.27 14.05-12.47 25.15-24.6C56.5 84.03 57.5 83.38 79.2 76.78c17.13-5.22 49.74-7.36 64.27-4.21 11.6 2.51 17.3 3.98 20.73 5.34 2.2.87 4.72 1.81 5.6 2.1 18.19 5.86 61.14 39.77 62.45 49.29.4 2.87-2.72 12.91-8.46 27.3-.8 1.98-2.23 5.72-3.2 8.32-.96 2.6-2.22 5.74-2.8 7a154.2 154.2 0 00-2.78 6.68c-3.75 9.6-5.1 12.95-6.61 16.4a569.98 569.98 0 00-6.27 15c-.74 1.87-1.91 4.75-2.6 6.4-.68 1.65-1.91 4.74-2.74 6.87a125 125 0 01-2.8 6.6c-.7 1.5-1.79 4.08-2.4 5.73a165.3 165.3 0 01-2.7 6.6c-2.67 6.14-3.03 9-1.14 9 1.28 0 4-2.13 12.47-9.8 2.43-2.2 6.02-5.35 7.97-7 4.76-4.03 6.86-5.82 9.65-8.23 4-3.44 7.39-6.25 11.76-9.76l5.97-4.79c6.83-5.49 9.24-7.35 12.68-9.82l7.18-5.2c7.82-5.71 10.56-7.6 19.17-13.22 6.9-4.5 8.06-6.11 10.22-14.06a96.1 96.1 0 012.28-7.2c1.8-4.77 4.28-14.95 3.95-16.25-.5-2.04-2.56-2.27-10.85-1.22-5.86.74-7.65.5-9.78-1.3-2.55-2.14-1.52-4.83 4.62-12.08a900.02 900.02 0 0119.8-22.67 805.5 805.5 0 0014.33-15.99c19.95-22.59 21.46-23.48 33.11-19.6 2.38.79 6.21 1.96 8.52 2.6 16.83 4.64 18.4 6.6 16.58 20.6-.95 7.29-4.22 20.28-6.43 25.59a270.1 270.1 0 00-2.52 6.4c-6.36 16.77-15.77 30.42-25.63 37.18-24.83 17.03-49.63 37.92-88.89 74.86-10.82 10.18-42 41.52-43.73 43.96-2.44 3.43-1.62 4.12 5.27 4.45 11.46.54 14.11 4.89 8.2 13.47-2.05 2.99-2.07 4-.09 5.9 2.27 2.15 2.98 2.06 4.29-.52 3.38-6.67 7.16-10.55 14.55-14.92 7.07-4.2 7.79-4.37 17.8-4.26 26.68.26 29.04 1.53 23.41 12.53-2.39 4.68-2.44 5.28-.6 7.69 3.25 4.25 4.35 3.6 6.84-4.07 4.74-14.58 6.59-16.33 16.95-16.03 10.41.3 11.02.24 15.67-1.37 15.2-5.25 22.7 1.67 14.98 13.84a80.22 80.22 0 00-2.6 4.52c-2.84 5.37-6.32 7.77-11.25 7.77-6.92 0-8.61 2.46-5.6 8.15 2.54 4.8 1.66 7.88-3.95 13.94-3.97 4.29-4.62 4.51-13.25 4.51-11.28 0-14.96-2.23-17.16-10.4-.94-3.49-1.49-3.4-5.84 1.04-5.95 6.06-9.49 8.06-18 10.14-12.77 3.14-25.3 2.57-33.36-1.5-4.93-2.49-5.31-9.06-.79-13.63 2.56-2.58 3.01-4.25 1.42-5.21-.87-.52-.98-.4-3.93 4.56-3.21 5.39-10.86 11.97-16.3 14.02-11.7 4.4-25.46 4.98-36.35 1.52-7.97-2.54-9.37-7.47-4.03-14.19 5.05-6.35 1.1-8.91-7.66-4.97-2.09.94-5.6 2.47-7.8 3.4-2.2.94-4.9 2.16-6 2.72-7.48 3.79-14.6 2.52-14.6-2.61 0-1.14 4.47-18.91 5.4-21.49.36-.99 1.19-4.05 1.84-6.8.65-2.75 1.8-6.83 2.57-9.06.76-2.23 1.9-6.37 2.55-9.2a67.28 67.28 0 012.04-7.34c.48-1.21 1.5-4.9 2.25-8.2.76-3.3 1.9-7.71 2.55-9.8.64-2.09 1.8-6.95 2.59-10.8.78-3.85 1.85-9.07 2.39-11.6 4.17-19.72 4.16-45.63-.02-57.14-.78-2.12-1.95-5.38-2.62-7.23-2.44-6.8-5.3-11.17-8.7-13.38a155.02 155.02 0 00-17.44-9.04c-7.66-3.16-8.97-3.63-14.4-5.25-9.11-2.7-10.86-3.12-18.2-4.33l-13.8-2.29c-10.36-1.72-29.45-1.7-39.65.02l-6.84 1.16-3.06-.72c-2.92-.69-3.09-.69-3.84-.01-1.9 1.71-1.81-3.97-1.81 127.08v123.47l.84 1.13c1.68 2.26-9.73 2.13 186.16 2.03 199.53-.11 183.12.1 184.39-2.28.87-1.63.55-366.04-.32-367.22a5.16 5.16 0 00-2.1-1.48c-1.99-.7-363.95-.7-365.93 0"/>
      <path fill="#a4bcd3" d="M14.2 11c-2.14.76-3.25 2.13-3.77 4.69-.94 4.53-.38 369.02.57 370.91a5.23 5.23 0 002.4 2.4c2.48 1.24 371.06 1.27 373.55.03a4.81 4.81 0 002.4-2.6l.85-1.83V15.8l-.87-1.87a5.54 5.54 0 00-2.2-2.6C385.31 10.33 17.01 10 14.2 11m372.47 1.24a8.88 8.88 0 011.93 2.2c.8 1.36.8 2.08.8 185.76v184.4l-.81 1.39a7.35 7.35 0 01-2.2 2.2L385 389l-183.6.12c-131.47.09-184.18 0-185.64-.31a5.49 5.49 0 01-4.52-4.21c-.59-2.16-.62-366.96-.03-369 .22-.77.72-1.81 1.1-2.32 1.7-2.19-11.21-2.05 188.56-1.96l184.67.08 1.13.84M105 73.4c-2.64.27-6.78.88-9.2 1.33-2.42.46-6.02 1.12-8 1.47a71.4 71.4 0 00-8.39 2.26 243.3 243.3 0 01-8.07 2.57c-10.3 2.98-16.07 6.3-21 12.1-3.86 4.53-13.44 14.63-23.59 24.87-8.24 8.31-8.67 9.06-6.65 11.4 1.29 1.5 3.1 1.61 10.71.67 20.26-2.5 50.78.11 67.37 5.77 1.55.53 4.93 1.6 7.5 2.36 2.58.77 5.73 1.87 7 2.44 1.28.57 3.76 1.63 5.52 2.36 3.71 1.52 13.75 6.77 16.33 8.56 3.06 2.1 6.14 6.65 8.1 11.94.56 1.49 1.56 4.04 2.24 5.68 4.31 10.5 5.69 25.66 3.92 43.22-.78 7.74-2.77 20.56-3.77 24.3-.55 2.02-1.54 6.36-2.2 9.63-.67 3.26-1.76 7.72-2.43 9.9-.67 2.19-1.67 5.95-2.21 8.37a96.83 96.83 0 01-2.01 7.49c-.57 1.7-1.8 6.01-2.75 9.6-.94 3.58-2.36 8.76-3.14 11.51-8.6 30.08-8.93 31.8-6.52 33.87 2.56 2.2 5.18 1.5 19.84-5.28 13.4-6.19 15.54-6.49 18.8-2.6 3.08 3.69 3.02 4.89-.38 7.2-7.56 5.13-5.77 10.5 4.08 12.23 19.45 3.42 37.4-2.99 44.68-15.96 4.09-7.3 3.54-10.74-2.2-13.9l-3.05-1.67 2-2.04c8.5-8.72 7.63-12.87-2.82-13.51-7.3-.45-9.62-1.48-8.99-3.98.8-3.18 37.56-39.76 67.65-67.33 14.03-12.86 15.47-14.14 25.57-22.63l8.2-6.92c2.22-1.88 9.36-7.65 14.46-11.68a294.02 294.02 0 0119.4-14.12 79.95 79.95 0 007.52-5.64c4.8-4.6 15.57-23.11 18.89-32.44.5-1.43 1.66-4.54 2.57-6.91 4.6-12.03 7.91-32.12 5.9-35.8-1.19-2.19-6.73-4.48-21.44-8.88-14.38-4.29-13.68-4.66-33.06 17.42-1.78 2.01-6.84 7.6-11.25 12.42A512.15 512.15 0 00288.59 118c-1.93 2.31-5.16 6-7.17 8.2-13.74 15-13.6 18.47.72 16.79 10.41-1.23 12.85.44 10.27 7a75.54 75.54 0 00-1.99 6.71 87.31 87.31 0 01-2.16 7.3c-.54 1.44-1.55 4.58-2.26 6.99-2.17 7.45-3.77 9.5-11 14.01-5.94 3.71-19.72 13.4-28.12 19.77-14.53 11.03-28.2 22.37-46.1 38.26-14.54 12.91-17.58 14.84-17.58 11.16 0-1.3 3.2-10.32 5.39-15.19a91.3 91.3 0 002.1-5.2c.55-1.54 1.6-3.97 2.31-5.4a62.23 62.23 0 002.37-5.59 112.2 112.2 0 012.5-6.2 90.9 90.9 0 002.32-5.81c.5-1.43 1.73-4.42 2.75-6.64a48.67 48.67 0 001.86-4.35c0-.17.98-2.58 2.17-5.36 2.6-6.07 5.35-12.82 7.4-18.25.84-2.2 2.02-5.08 2.62-6.4.6-1.32 1.5-3.6 2.02-5.07.5-1.47 1.74-4.62 2.75-7 7.6-18.06 9.8-27.24 7.6-31.66-1.4-2.8-14.05-14.74-23.43-22.11-17.2-13.52-28.21-19.68-46.84-26.2-11.8-4.12-36.98-6.15-54.09-4.36m27.8 3.41c9.15.48 16.16 1.56 22 3.4l8.14 2.55c4.38 1.37 17.88 7.9 22.13 10.7 1.5 1 3.72 2.4 4.93 3.1 6.2 3.67 19.37 14.33 30.1 24.38 6.12 5.72 6.84 6.76 6.83 9.81-.01 2.43-4.42 16.3-6.94 21.85-.7 1.54-1.9 4.6-2.66 6.79a62.84 62.84 0 01-2.17 5.49c-.42.83-1.4 3.27-2.18 5.41-.78 2.15-1.93 5.08-2.57 6.51-1.33 3-4.1 9.82-6.61 16.25-.96 2.44-2.27 5.5-2.91 6.8-.65 1.3-1.4 3.07-1.68 3.95-.27.88-1.55 4.12-2.83 7.2-1.29 3.08-2.96 7.13-3.72 9-.75 1.87-2.4 5.83-3.66 8.8a682 682 0 00-4.2 10.2 178.18 178.18 0 01-3.33 7.83c-4.33 9.18-3.83 14.77 1.32 14.77 2.33 0 3.46-.9 21.95-17.6a938.29 938.29 0 0134.02-28.68 759.89 759.89 0 0122.04-16.51 279.1 279.1 0 005.6-4c1.46-1.1 8.89-6.02 12.94-8.58 1.3-.81 3.47-2.6 4.84-3.95l2.5-2.48 2.43-7.2c1.34-3.96 2.9-8.94 3.48-11.08.57-2.13 1.7-5.73 2.51-8 3.96-11.09 1.27-15.91-8.21-14.76-13.39 1.64-13.4 1.75 1.36-15.2 9.2-10.57 13.97-15.9 33.36-37.21 10-11 12-11.56 24.86-6.95 4.6 1.65 7.08 2.47 10.46 3.44 6.43 1.84 6.86 3.18 4.87 15.1-1.84 11.03-5.44 23.5-8.53 29.53-.47.91-1.3 2.87-1.87 4.36-1.1 2.91-5.44 11-7.82 14.57-.8 1.21-2.29 3.46-3.29 5a29.86 29.86 0 01-9.15 9.17 330.86 330.86 0 00-20.57 14.83c-4.55 3.48-7.42 5.8-13.37 10.77A659.45 659.45 0 00284.38 197c-1.26 1.1-3.6 3.08-5.21 4.4-2.88 2.36-9.13 8-17.73 15.96a548.2 548.2 0 01-7.07 6.44c-17.48 15.5-61.94 60.15-62.63 62.9-.84 3.34 4.76 5.68 13.65 5.7 6.66.03 7.91 3.41 3.5 9.43-2.36 3.22-5.17 3.69-10.5 1.74-7.05-2.57-11.65-1.27-8.54 2.41 1.93 2.3 2.92 2.57 10.15 2.8 7.5.25 9.64.9 11.19 3.4 3.24 5.24-4.71 17.72-14.14 22.2-11.66 5.55-35.57 5.6-38.42.07-1.5-2.89-.16-5.36 3.95-7.3 3.04-1.44 3.51-1.43 7.97.13 6.4 2.24 14.65 1.74 14.65-.88 0-1.83-1.63-2.2-9.19-2.1-8.91.13-8.05.46-12.44-4.75-5.72-6.81-7.37-7.34-13.6-4.3-1.85.9-4.5 2.07-5.88 2.6a74.5 74.5 0 00-5.6 2.5c-11.79 5.9-14.12 4.77-10.69-5.22a69.98 69.98 0 002.01-7.18 98.92 98.92 0 012.2-8.14c.85-2.64 2.1-7.06 2.77-9.81a147 147 0 012.01-7.4c.43-1.32 1.77-6.09 2.97-10.6 1.2-4.51 2.46-8.94 2.78-9.85a79.6 79.6 0 001.65-6.6c.59-2.72 1.85-8.01 2.8-11.75.97-3.74 2.13-9.41 2.6-12.6.46-3.19 1.28-8.23 1.81-11.2 2.82-15.61 2.45-31.52-1.04-44.72-1.88-7.1-2.58-8.92-7.07-18.48-1.95-4.15-5.55-7.72-10.07-10a77.8 77.8 0 01-5-2.71c-7.8-4.93-30.73-12.7-46.82-15.86-8.83-1.73-31.83-2.97-42-2.26-13.7.96-13.67.96-13.98.46-.57-.92.2-2.4 2.48-4.74 16.52-16.96 22.16-22.93 25.5-26.98A21.64 21.64 0 0164 87.4c1.21-.4 3.9-1.42 5.98-2.28a74.6 74.6 0 018.4-2.73 211.3 211.3 0 008.54-2.37c9.48-2.93 27.4-4.18 45.88-3.22m184.6 212.36c-.88.16-3.38.8-5.56 1.4-3.82 1.07-4.15 1.1-9.8.8-9.56-.52-11-.3-13.32 2.14-1.21 1.27-3.52 6-3.52 7.21 0 .21-.7 2.08-1.57 4.15a90.45 90.45 0 00-2.58 7.15 195.3 195.3 0 01-2.43 7.38c-4.12 11.66.45 17.85 13.18 17.88 6.57.01 10.88-2.7 13.6-8.56 1.26-2.7 1.29-2.44-.64-6.11-3.6-6.8-.36-12.24 7.44-12.52 6.03-.2 8.21-1.77 11.82-8.46l2.8-5.18c2.93-5.32-1.56-8.8-9.42-7.28m7.26 1.5c2.52 1.18 2.54 2.41.1 7.14-4.92 9.54-6.9 11.39-12.22 11.4-8.66 0-13.33 6.85-9.23 13.5 2.42 3.92 1.77 6.3-2.96 10.73-5.47 5.13-17.24 4.06-21.71-1.97-1.96-2.64-1.48-6.46 2.12-16.87 8.53-24.72 7.2-23.32 21.44-22.45 5.41.33 5.72.3 9.33-.74 6.56-1.9 10.22-2.11 13.13-.75m-81.06.57c-2.49.41-8.91 3.56-12.6 6.18-9.26 6.56-13 15.79-8.88 21.82 1.66 2.42 2.05 3.35 1.93 4.65-.03.27-1.4 1.48-3.04 2.7-9.6 7.1-3.6 12.62 13.73 12.62 17.01 0 25.97-3.75 33.69-14.1 5.7-7.62 5.4-13.37-.87-16.52-3.29-1.66-3.28-1.62-.8-3.7 5.2-4.4 7.03-10.23 3.85-12.3-1.61-1.07-22.45-2.1-27.01-1.35m13.7.78c10.54.53 11.4.65 12.55 1.8 1.84 1.84 1.08 4.9-2 8.12-3.12 3.27-4.59 3.52-9.98 1.7-6.27-2.12-9.47-1.91-9.47.62 0 3.06 3.62 4.55 11.09 4.55 10.88 0 14.3 3.87 10.37 11.73-6.3 12.58-16.68 17.87-35.08 17.87-9.73 0-13.52-.73-16.07-3.12-4.75-4.42 3.38-11.1 10.18-8.37 6.51 2.6 14.87 2.4 15.8-.39.63-1.87-3.1-2.65-11.1-2.3l-6.64.28-2.18-2.73c-4.45-5.57-4.82-7.1-2.97-12.02 2.66-7.06 6.28-10.64 15.42-15.26 6.05-3.06 6.8-3.15 20.08-2.48m-59.16 12.76c3.55 1.53 3.06 2.87-1.01 2.79-2.94-.06-3.92-.4-4.9-1.7-1.69-2.28 1.69-2.9 5.91-1.09m59.37.19c2.52 1.27 2.83 1.73 1.49 2.24-3.54 1.35-8.22-.29-7.62-2.67.33-1.32 3.06-1.13 6.13.43m-74.54 20.77c.67.5.68.57.05 1.2-1.2 1.2-9.02.58-9.02-.72 0-1 7.7-1.41 8.97-.48m59.1.18c.82.82-.22 1.42-2.77 1.6-4.04.3-7.28-1.14-4.47-1.98 1.5-.45 6.68-.18 7.24.38"/>
      <path fill="#bdebcb" d="M14.62 11.8c-1.81.64-2.83 1.78-3.41 3.8-.6 2.04-.56 366.84.03 369a5.49 5.49 0 004.52 4.2c1.46.32 54.17.4 185.64.32L385 389l1.39-.81a7.35 7.35 0 002.2-2.2l.81-1.39V200.2c0-183.68 0-184.4-.8-185.76a8.88 8.88 0 00-1.93-2.2l-1.13-.84-184.67-.08c-158.25-.08-184.9 0-186.25.48m368.54 3.12c.75.27 1.7.93 2.1 1.48.88 1.18 1.2 365.6.33 367.22-1.27 2.37 15.14 2.17-184.39 2.28-195.89.1-184.48.23-186.16-2.03l-.84-1.13V259.27c0-131.05-.08-125.37 1.81-127.08.75-.68.92-.68 3.84 0l3.06.73 6.84-1.16c10.2-1.73 29.3-1.74 39.65-.02l13.8 2.29c7.34 1.2 9.09 1.63 18.2 4.34 5.43 1.6 6.74 2.09 14.4 5.24 4.36 1.79 13.79 6.68 17.44 9.04 3.4 2.2 6.26 6.59 8.7 13.38l2.62 7.23c4.18 11.51 4.2 37.42.02 57.14-.54 2.53-1.61 7.75-2.4 11.6-.77 3.85-1.94 8.71-2.58 10.8-.64 2.09-1.79 6.5-2.55 9.8a80.91 80.91 0 01-2.25 8.2 67.28 67.28 0 00-2.04 7.34c-.64 2.83-1.79 6.97-2.55 9.2-.76 2.23-1.92 6.31-2.57 9.06a90.83 90.83 0 01-1.84 6.8c-.93 2.58-5.4 20.35-5.4 21.49 0 5.13 7.12 6.4 14.6 2.6 1.1-.55 3.8-1.77 6-2.7 2.2-.94 5.71-2.47 7.8-3.41 8.77-3.94 12.71-1.38 7.66 4.97-5.34 6.72-3.94 11.65 4.03 14.19 10.9 3.46 24.64 2.89 36.36-1.52 5.43-2.05 13.08-8.63 16.29-14.02 2.95-4.95 3.06-5.08 3.93-4.56 1.6.96 1.14 2.63-1.42 5.2-4.52 4.58-4.14 11.15.8 13.64 8.05 4.07 20.58 4.64 33.35 1.5 8.51-2.08 12.05-4.07 18-10.14 4.35-4.43 4.9-4.53 5.84-1.04 2.2 8.17 5.88 10.4 17.16 10.4 8.63 0 9.28-.22 13.25-4.5 5.61-6.07 6.49-9.16 3.95-13.95-3.01-5.69-1.32-8.15 5.6-8.15 4.93 0 8.41-2.4 11.25-7.77.7-1.33 1.87-3.37 2.6-4.52 7.71-12.17.22-19.09-14.98-13.84-4.65 1.6-5.26 1.66-15.67 1.37-10.36-.3-12.2 1.45-16.95 16.03-2.5 7.67-3.59 8.32-6.84 4.06-1.84-2.4-1.79-3 .6-7.68 5.63-11 3.27-12.27-23.41-12.53-10.01-.1-10.72.07-17.8 4.26-7.4 4.37-11.17 8.25-14.55 14.92-1.3 2.58-2.02 2.67-4.29.51-1.98-1.88-1.96-2.9.1-5.9 5.9-8.57 3.25-12.93-8.21-13.46-6.89-.33-7.71-1.02-5.27-4.45 1.73-2.44 32.9-33.78 43.73-43.96 39.26-36.94 64.06-57.83 88.89-74.86 9.86-6.76 19.27-20.41 25.63-37.18.83-2.2 1.97-5.08 2.52-6.4 6.13-14.71 8.82-36.56 4.94-40.13-1.3-1.2-9.69-4.57-15.09-6.07-2.31-.63-6.14-1.8-8.52-2.6-11.65-3.87-13.16-2.98-33.1 19.61a805.5 805.5 0 01-14.35 16 900.02 900.02 0 00-19.8 22.66c-6.13 7.25-7.16 9.94-4.61 12.08 2.13 1.8 3.92 2.04 9.78 1.3 8.3-1.05 10.34-.82 10.85 1.22.33 1.3-2.15 11.48-3.95 16.25a96.1 96.1 0 00-2.28 7.2c-2.15 7.95-3.33 9.56-10.22 14.06a345.61 345.61 0 00-19.17 13.22c-1.8 1.32-5.04 3.66-7.18 5.2a268.12 268.12 0 00-12.68 9.82l-5.97 4.8a419.03 419.03 0 00-11.76 9.75c-2.8 2.41-4.9 4.2-9.66 8.23-1.94 1.65-5.53 4.8-7.96 7-8.47 7.66-11.19 9.8-12.47 9.8-1.9 0-1.53-2.86 1.14-9a165.3 165.3 0 002.7-6.6c.61-1.65 1.7-4.23 2.4-5.73a125 125 0 002.8-6.6c.83-2.13 2.06-5.22 2.74-6.87.69-1.65 1.86-4.53 2.6-6.4a569.98 569.98 0 016.27-15c1.5-3.45 2.86-6.8 6.6-16.4.95-2.42 2.2-5.43 2.78-6.68.59-1.26 1.85-4.4 2.82-7 .96-2.6 2.4-6.34 3.19-8.32 10.67-26.73 10.73-28.5 1.24-37.71-18.16-17.62-42.57-34.8-55.23-38.88-.88-.29-3.4-1.23-5.6-2.1-3.44-1.36-9.14-2.83-20.73-5.34-14.53-3.15-47.14-1.01-64.27 4.2-21.7 6.61-22.7 7.25-38 23.96-11.09 12.13-24.11 24.87-25.14 24.6-1.86-.48-1.86-.55-1.86-55.8V17.66l.84-1.13a5.47 5.47 0 012.2-1.6c1.98-.7 363.94-.7 365.92 0m-247.68 58.3c5.82.47 19.55 3.12 23.6 4.53 18.64 6.52 29.65 12.67 46.85 26.2 9.38 7.37 22.03 19.31 23.43 22.1 2.2 4.43 0 13.6-7.6 31.67-1 2.38-2.24 5.53-2.75 7a70.49 70.49 0 01-2.02 5.07c-.6 1.32-1.78 4.2-2.61 6.4a478.45 478.45 0 01-7.4 18.25 75.58 75.58 0 00-2.18 5.36c0 .17-.84 2.13-1.86 4.35a92.73 92.73 0 00-2.75 6.64 90.9 90.9 0 01-2.32 5.81 112.2 112.2 0 00-2.5 6.2 62.23 62.23 0 01-2.37 5.59 61.66 61.66 0 00-2.32 5.4 91.3 91.3 0 01-2.1 5.2c-9.35 20.8-7.41 21.44 12.2 4.03 14.83-13.17 29.47-25.46 40.3-33.83 10.96-8.49 26.4-19.5 33.92-24.2 7.23-4.51 8.83-6.56 11-14.01.7-2.41 1.72-5.56 2.26-6.99a87.31 87.31 0 002.17-7.3 75.54 75.54 0 011.98-6.71c2.58-6.56.14-8.23-10.27-7-14.31 1.68-14.46-1.8-.72-16.79 2.01-2.2 5.24-5.89 7.17-8.2 1.93-2.31 7.12-8.14 11.54-12.95 4.41-4.82 9.47-10.4 11.25-12.42 19.38-22.08 18.68-21.71 33.06-17.41 14.7 4.4 20.25 6.68 21.44 8.86 2.01 3.69-1.3 23.78-5.9 35.81a400.6 400.6 0 00-2.57 6.91c-3.32 9.33-14.1 27.84-18.89 32.44a79.95 79.95 0 01-7.52 5.64A294.02 294.02 0 00311.6 179c-5.1 4.03-12.24 9.8-14.46 11.68l-8.2 6.92c-10.1 8.5-11.54 9.77-25.57 22.63-30.1 27.57-66.84 64.15-67.65 67.33-.63 2.5 1.7 3.53 8.99 3.98 10.45.64 11.32 4.79 2.82 13.5l-2 2.05 3.06 1.68c5.73 3.15 6.28 6.6 2.19 13.89-7.29 12.97-25.23 19.38-44.68 15.96-9.85-1.74-11.64-7.1-4.07-12.24 3.39-2.3 3.45-3.5.36-7.19-3.25-3.88-5.4-3.59-18.79 2.6-14.66 6.78-17.28 7.48-19.84 5.28-2.4-2.07-2.08-3.79 6.52-33.87.78-2.75 2.2-7.93 3.14-11.51.95-3.59 2.18-7.9 2.75-9.6.56-1.7 1.46-5.07 2-7.49.55-2.42 1.55-6.18 2.22-8.37.67-2.18 1.76-6.64 2.43-9.9.66-3.27 1.65-7.6 2.2-9.64 5.88-21.8 5.8-53.01-.15-67.5-.68-1.65-1.68-4.2-2.23-5.69-1.97-5.3-5.05-9.84-8.1-11.94-2.6-1.79-12.63-7.04-16.34-8.56-1.76-.73-4.24-1.79-5.52-2.36a72.99 72.99 0 00-7-2.44c-2.57-.77-5.95-1.83-7.5-2.36-16.6-5.66-47.11-8.28-67.37-5.77-7.61.94-9.42.83-10.7-.67-2.03-2.34-1.6-3.09 6.64-11.4 10.15-10.24 19.73-20.34 23.59-24.87 4.93-5.8 10.7-9.12 21-12.1a243.3 243.3 0 008.07-2.57 71.4 71.4 0 018.39-2.26c1.98-.35 5.58-1.01 8-1.47 9.6-1.81 27.67-2.5 39.68-1.5m190.18 216.6c2.58 1.34 2.94 3.38 1.16 6.62l-2.8 5.18c-3.6 6.69-5.79 8.25-11.82 8.46-7.8.28-11.03 5.71-7.44 12.52 1.93 3.67 1.9 3.41.64 6.11-2.72 5.86-7.03 8.57-13.6 8.56-12.73-.03-17.3-6.22-13.18-17.88.78-2.2 1.87-5.52 2.43-7.38a90.45 90.45 0 012.58-7.15 38.7 38.7 0 001.57-4.15c0-1.22 2.3-5.94 3.52-7.21 2.32-2.43 3.76-2.66 13.32-2.15 5.64.3 5.98.28 9.8-.79 6.75-1.88 11.16-2.11 13.82-.74m-60.97 1.75c5.32.35 6.63.83 7.35 2.72.96 2.53-1.44 7.33-5.28 10.57-2.48 2.1-2.49 2.05.8 3.71 13.2 6.65-1.9 26.94-22.36 30.04-21.86 3.31-35.66-3.56-24.19-12.04 1.65-1.22 3.01-2.43 3.04-2.7.12-1.3-.27-2.23-1.93-4.65-4.13-6.03-.38-15.25 8.88-21.82 9.14-6.49 13.03-7.16 33.7-5.83m-72.5 12.56c-2.54 1.9 4.73 4.7 7.85 3.03.67-.36.72-.53.28-1.05-1.39-1.67-6.78-2.98-8.13-1.98m59.18.4c-.6 2.37 4.08 4 7.62 2.66 1.34-.5 1.03-.97-1.49-2.24-3.07-1.56-5.8-1.75-6.13-.43m-76.48 21.08c-1.22.5-1.14.73.49 1.41 3.3 1.38 9.73.28 7.58-1.3-.83-.6-6.64-.68-8.07-.1m59.93-.09c-2.8.84.43 2.28 4.47 1.99 2.55-.19 3.59-.8 2.77-1.61-.56-.56-5.74-.83-7.24-.38"/>
   </g>
</svg>